<?xml version="1.0" encoding="UTF-8" standalone="no"?>
<svg
   xmlns:dc="http://purl.org/dc/elements/1.1/"
   xmlns:cc="http://creativecommons.org/ns#"
   xmlns:rdf="http://www.w3.org/1999/02/22-rdf-syntax-ns#"
   xmlns:svg="http://www.w3.org/2000/svg"
   xmlns="http://www.w3.org/2000/svg"
   id="svg8"
   version="1.1"
   viewBox="0 0 127 127"
   height="480"
   width="480">
  <defs
     id="defs2" />
  <metadata
     id="metadata5">
    <rdf:RDF>
      <cc:Work
         rdf:about="">
        <dc:format>image/svg+xml</dc:format>
        <dc:type
           rdf:resource="http://purl.org/dc/dcmitype/StillImage" />
        <dc:title></dc:title>
      </cc:Work>
    </rdf:RDF>
  </metadata>
  <g
     transform="translate(-136.30122,-26.972941)"
     id="layer1">
    <path
       id="path1137"
       d="m 200.53773,150.80784 c 0.43639,-4.64615 2.58978,3.08742 0,0 z m 20.223,-0.0748 c -1.04494,-4.48257 5.21466,2.34249 0,0 z m 18.53796,-0.48293 c -1.29073,-2.87294 2.81326,0.66608 0,0 z m -51.18752,-1.1416 c -3.07874,1.90229 -7.7034,-6.013 -2.53934,-4.49706 -2.52945,-1.30142 -5.89973,-7.76588 -6.78925,-2.46522 -7.26067,3.61828 -15.70034,-5.07728 -12.91835,-12.3577 -0.67204,-5.63778 -12.14772,-7.29865 -6.80613,-13.59709 -2.11853,-3.18202 -10.28591,-6.43936 -3.49459,-10.1799 4.66271,-6.54432 -5.80352,-12.063026 -11.24269,-12.854425 1.63218,-3.519959 9.46143,-5.405852 5.05536,-11.200326 -1.6968,-2.536868 5.94535,-7.283374 -0.54776,-5.937612 -8.82231,-0.887515 -4.94566,-12.615205 2.32099,-12.509185 5.44657,-2.581978 12.20764,-6.606208 11.42379,-13.592909 3.50427,-6.115769 10.19886,-11.685593 15.7913,-16.022427 6.86127,-1.391817 15.01001,3.271406 20.81977,-2.290736 6.50515,-2.43421 14.40173,1.812425 19.30525,5.83664 1.64011,3.219341 2.45224,-4.581222 5.70247,-0.160991 2.75293,4.294502 0.19899,11.221854 7.41959,12.374829 5.4064,1.568676 12.55208,-0.99148 13.20923,6.749445 1.54444,5.473278 6.47863,4.162549 9.44227,1.104872 3.47538,3.626608 3.37134,13.190209 -1.95491,16.094005 -4.56848,0.744746 4.187,4.248613 3.97494,7.592102 3.29983,3.227428 -3.66656,6.838395 -2.07981,7.023209 6.05952,1.431384 0.99924,3.467123 -1.85609,4.746592 -3.87736,1.589686 -3.85212,11.568437 -0.57648,9.680737 4.33742,-4.114789 8.17454,7.19036 2.3999,7.45751 -1.76246,3.42014 -0.84792,8.16158 2.63386,8.88578 -1.30703,2.45025 -7.13913,2.33775 -3.40555,5.6309 -2.26226,0.47583 -10.79498,-2.10114 -8.17212,1.7453 3.32734,-0.5914 7.62419,3.36755 1.88785,3.47887 -5.96244,2.16191 -7.92284,11.00104 -12.1392,13.79503 0.33768,5.66766 -4.13102,0.82395 -4.88142,-1.32402 -4.58476,-1.74814 -8.71565,8.06999 -11.87933,0.64812 -4.61811,-4.31693 -11.21562,-0.0595 -11.61673,4.72961 -6.25529,-0.50932 -12.52439,-0.68068 -18.19457,1.87201 z m 1.30817,-3.05137 c -2.00188,-3.13724 0.69442,3.14059 0,0 z m 4.78166,-2.11365 c 1.04137,-6.14803 -7.06004,3.35121 -0.65319,1.15273 0.21773,-0.38424 0.43546,-0.76849 0.65319,-1.15273 z m 8.15051,0.95743 c -0.92076,-4.36313 -0.51796,2.80959 0,0 z m -4.45508,-2.47502 c -0.92077,-4.36031 -0.51795,2.80875 0,0 z m -9.90014,-0.1906 c -1.22223,-4.37303 -4.86123,0.49003 0,0 z m 10.79601,-1.6458 c -0.55985,-5.61555 -7.78842,1.13786 0,0 z m 39.94097,-3.93976 c 4.27867,-6.91397 -8.68539,0.1795 -1.7466,1.065 0.6983,-0.0788 1.37087,-0.46098 1.7466,-1.065 z M 251.63,106.17736 c -3.26553,0.45137 2.03242,2.23804 0,0 z m -3.73776,-6.785046 c -1.0128,-2.892059 3.09584,-10.970994 -2.07439,-10.128828 -0.66601,2.366013 -3.12076,12.415874 2.07439,10.128828 z M 154.33575,72.658889 c -0.29223,-2.362317 -1.55982,1.227298 0,0 z m 99.87685,-2.848558 c -1.95849,-4.588418 -4.30116,2.03791 0,0 z m -6.81538,-2.873289 c -1.57176,-4.114765 -1.61287,3.284325 0,0 z m -5.9401,-1.964501 c -1.628,-1.475742 -1.12522,2.190625 0,0 z m -0.24673,-5.297737 c 2.49182,-6.362892 -4.38408,-0.160351 0,0 z M 184.79916,43.704592 c -0.50517,-2.030114 -1.43486,0.726562 0,0 z m 26.46255,-4.998921 c -1.74723,-4.924755 -4.39173,2.710368 0,0 z m -10.39517,-2.677429 c -0.29223,-2.362322 -1.55981,1.227288 0,0 z m 5.44513,-0.771687 c -1.05182,-2.431412 -0.56981,2.065403 0,0 z m 22.89411,111.544005 c -3.08926,-2.70396 3.29096,-0.67163 0,0 z m 15.22145,-14.02741 c 0.6495,-3.70568 0.80844,3.35666 0,0 z m -81.27412,-3.30821 c 1.02784,-1.82386 1.6092,0.56608 0,0 z m 96.89301,-7.04469 c -0.14657,-2.66047 1.85438,1.3337 0,0 z m -105.99206,-7.02773 c 0.50083,-4.39229 2.99326,2.76236 0,0 z m -5.88625,-9.52176 c 1.31755,-3.0013 1.73349,2.9029 0,0 z m 4.9283,-1.31658 c 1.48748,-3.45612 2.26813,2.80111 0,0 z m -5.01261,-1.22398 c -1.3205,-2.78841 1.95944,1.51503 0,0 z m 1.30221,-3.917131 c 1.57615,-4.242724 2.89643,3.740171 0,0 z m 103.70938,-0.291743 c -2.09117,-8.266705 7.83222,1.804054 0,0 z m -108.65954,-1.49356 c 1.04976,-2.54527 1.1074,2.391134 0,0 z M 259.27741,89.24182 c 1.14151,-4.391819 1.89625,3.420332 0,0 z M 144.06429,87.369519 c -5.1365,-5.116792 8.50691,-3.592392 2.46616,0.272732 l -1.24004,-0.06862 z m -5.56884,-12.017123 c 1.78991,-5.749739 5.29785,1.598018 0,0 z M 255.6339,74.513883 c -2.33871,-3.644877 3.95471,0.0086 0,0 z M 139.32046,72.052309 c -1.49322,-3.358636 2.9103,0.953372 0,0 z m 109.5129,-19.905352 c -4.32475,-1.809553 0.12878,-9.515894 2.16129,-4.892414 5.33668,-0.401191 1.64572,8.265674 -2.16129,4.892414 z m -17.27633,-3.241213 c 1.68614,-4.096153 2.75104,3.448182 0,0 z m 8.70716,-2.686784 c -1.16102,-4.41796 4.15455,1.589216 0,0 z m -72.06825,-4.032134 c 1.04977,-2.545273 1.1074,2.391146 0,0 z m 61.13356,-3.465077 c 1.26264,-2.110194 0.42635,1.857372 0,0 z"
       style="fill:#d0d0d0;fill-opacity:0.49803922;stroke-width:0.49500823" />
    <path
       id="path1135"
       d="m 201.36151,150.31691 c 1.37822,-1.44508 -0.0959,1.80026 0,0 z m -10.8902,-1.95082 c 1.02184,-2.49014 0.68483,2.21761 0,0 z m 11.63271,-1.23754 c 0.72597,-1.99094 0.2646,1.6538 0,0 z m -16.08778,-0.49521 c 1.05142,-2.43073 0.57024,2.06341 0,0 z m 7.73569,0.10173 c 3.69716,-1.74538 9.69898,-10.23408 1.74836,-9.63215 -3.15104,1.45752 -7.76803,6.8245 -10.59509,2.02993 0.34986,5.92099 -7.57718,-6.09637 -7.28698,1.89196 -6.52587,4.88193 -11.50653,-5.12587 -10.54294,-9.91628 -4.89697,-6.66129 -5.27776,-16.3496 -12.89531,-20.7487 -0.35735,-3.26696 7.27717,-1.82402 5.85895,-7.02455 -0.12789,-4.105345 -4.56274,-1.81781 -3.75906,-6.19278 -0.56312,-7.261901 -10.03203,-0.831455 -10.87013,-5.757465 5.86868,-0.329588 8.86798,-6.383328 9.37701,-11.660965 0.36103,-3.402654 3.46741,-12.913282 -2.54071,-10.227666 0.61388,3.441402 -1.93243,7.1422 -5.50104,4.149769 2.36238,-2.963413 -4.64062,-0.721478 -2.26293,-4.592692 3.38791,-6.166496 11.39282,-6.166305 16.28914,-10.633467 2.304,-4.364799 1.41496,-9.969011 6.11161,-13.454985 3.67775,-3.739092 7.42735,-7.651713 11.7741,-10.528072 7.07021,-2.804079 12.93139,3.796304 19.56133,4.860286 5.27968,0.372686 0.0665,-11.394141 5.23391,-6.915054 -0.0975,8.129593 7.92403,-4.098314 11.1952,2.656836 2.35091,1.715544 5.07273,9.67053 5.40933,8.658981 -0.1533,-4.410076 3.77027,-6.039431 4.19417,-1.005418 4.2082,4.486478 7.54583,13.067344 8.69809,16.793533 4.3766,-3.453267 4.07097,0.873407 1.52268,3.398787 -0.44879,5.572142 9.65801,3.720637 4.71445,-0.09033 4.01649,-5.339897 13.31807,-3.511482 16.08775,2.198866 1.69525,5.078788 -10.98873,6.504236 -6.62676,11.427783 2.08184,3.363216 -2.78868,8.688989 -4.01226,12.606481 -2.55729,4.979072 -2.69031,12.435391 2.83885,15.476571 4.36416,3.42865 5.99228,9.87443 3.87889,15.11308 -0.85675,2.90711 0.11564,5.91344 -2.6941,2.39444 -6.19935,-1.99211 -7.41846,7.43655 -12.30817,10.00095 -3.49605,4.06428 -1.7942,10.76433 -8.97494,9.95768 -5.29647,0.55376 -10.55304,-0.76946 -15.62332,-2.14428 -3.3201,1.39872 -7.22256,8.04873 -10.65095,3.21067 -0.67352,3.07684 -4.43641,5.32095 -7.34913,3.69825 z m -21.45247,-9.50713 c -2.35029,-5.76756 -0.48605,4.4231 0,0 z m 9.2617,-5.9401 c -1.5715,-4.1147 -1.61317,3.28428 0,0 z m 46.03577,0.0526 c -1.25169,-3.87922 -3.26214,2.31667 0,0 z m -50.75733,-2.70041 c 0.89223,-3.8736 -2.93644,0.3532 -1.02638,0.71793 z m 52.24235,-1.1181 c -1.80052,-1.53899 -1.05445,2.35423 0,0 z m 12.37523,-8.60969 c -1.61478,-2.59321 -1.54076,2.65407 0,0 z m 3.16216,-43.994555 c -1.89316,-4.256064 -5.25098,0.274649 -1.23233,0.80533 l 0.58806,-0.271074 z m -6.13227,-1.575413 c -2.33049,-2.699851 -0.9009,3.183363 0,0 z m 9.08309,-4.725828 c 0.78541,-6.401201 -4.72565,4.306612 0,0 z M 228.33944,54.066205 c -1.03069,-1.583595 -0.33961,1.783642 0,0 z m -58.65847,-2.940817 c 0.10248,-1.945061 -1.31554,0.769259 0,0 z m 11.88019,-4.466884 c 9.85678,-0.884996 -2.60366,-11.739885 -3.36796,-1.742903 -0.93159,2.313184 1.91613,3.394662 3.36796,1.742903 z m 30.09818,-7.998377 c -4.60002,-7.206732 -4.29705,6.82415 0,0 z m 21.65137,107.016783 c 1.05478,-2.9728 1.75053,2.29177 0,0 z m -1.93217,-1.36763 c -1.29071,-2.87301 2.81329,0.66627 0,0 z m 7.69003,-6.91776 c 1.92707,-4.26474 2.68959,3.46116 0,0 z m 0.90352,-3.8765 c 0.20005,-5.97299 5.45406,-0.67885 0.37763,0.51464 z m 6.76523,-4.04254 c 2.02419,-4.33634 4.3987,3.02471 0,0 z m -88.93655,-8.27971 c 1.22698,-4.84425 3.40418,2.57576 0,0 z m 94.42605,-12.46626 c -1.34918,-4.37427 4.39973,0.96066 0,0 z m 0.46422,-6.46605 c -0.96167,-3.793244 3.17546,1.13338 0,0 z m 0.86739,-3.686664 c -1.6248,-5.869235 4.58226,-0.176477 0,0 z m -4.67595,-5.154438 c 1.02187,-2.490155 0.6848,2.217635 0,0 z m 3.74822,-2.103766 c -7.07112,-1.09902 7.09927,-5.023699 2.38738,-0.275951 -0.74835,0.315177 -1.58679,0.41365 -2.38738,0.275951 z M 146.41583,86.736747 c 1.04977,-2.545268 1.10741,2.391155 0,0 z m 103.58041,-0.997539 c -4.50227,-6.713184 11.37869,-2.644821 3.62328,0.570541 -1.04936,0.65283 -3.17558,0.973379 -3.62328,-0.570541 z m -107.04548,0.578809 c -0.79346,-5.360253 5.95371,1.037562 0,0 z m 114.34689,-2.580318 c 1.01129,-1.013609 0.17922,1.431696 0,0 z M 151.61342,80.796882 c 1.26264,-2.110209 0.42636,1.857368 0,0 z m 0.53087,-1.445619 c -1.2518,-4.169589 3.50183,1.422705 0.48933,0.311728 l -0.29048,-0.185049 z m 98.4597,-0.570039 c -1.8262,-5.30896 4.55317,0.578242 0,0 z m -97.90755,-7.709382 c -2.23112,-4.141376 4.12284,0.787597 0,0 z m 83.56362,-7.105434 c 1.26264,-2.110196 0.42636,1.857372 0,0 z m 17.20155,-4.316569 c -2.33654,-0.606421 0.91654,-1.39761 0,0 z m 0.86629,-2.613526 c 1.1191,-1.479522 0.61351,1.708487 0,0 z m -14.76027,-1.279694 c -4.45001,-5.962126 8.65841,-2.187461 1.32603,0.08117 -0.53473,0.665908 -0.91011,0.14084 -1.32603,-0.08117 z m -4.78049,-3.037285 c -0.13943,-4.64195 2.77128,3.435553 0.12749,0.193969 z M 249.5325,52.19256 c -5.47178,-3.756415 4.6002,-6.347042 2.87989,-0.742035 -0.51882,0.983851 -1.95308,1.496632 -2.87989,0.742035 z M 224.3798,40.206248 c 0.55211,-1.482247 0.63539,1.300731 0,0 z m -29.02182,-3.58879 c -3.19064,-8.554218 8.61984,1.364806 0,0 z"
       style="fill:#b0b0b0;fill-opacity:0.49803922;stroke-width:0.49500823" />
    <path
       id="path1133"
       d="m 194.21094,146.67737 c -1.75411,-4.01465 6.31957,0.32545 1.41948,-0.77656 -0.2221,0.21629 -0.87832,1.55809 -1.41948,0.77656 z m 9.53474,-3.87779 c -2.18563,-7.24776 -12.20495,-6.70738 -15.56856,-2.94387 -4.40843,-4.63057 -9.92299,-1.75065 -13.22871,2.06839 -5.65592,1.27391 -8.82962,-8.35047 -2.85571,-10.05007 -8.29171,0.66072 -6.77443,-11.49079 -12.19461,-15.45012 -3.22356,-7.2137 4.54596,-17.379798 -4.07932,-22.011394 -8.16274,-4.692564 -0.24255,-11.534044 0.20475,-17.856096 1.52422,-4.976508 -1.16094,-11.341065 -5.85746,-5.672166 -3.64941,3.59818 -8.52429,-2.301109 -2.91456,-3.946225 4.83317,-4.247035 13.99345,-4.974082 15.30646,-12.17 -1.5217,-7.887362 6.87813,-8.995588 9.66317,-14.700854 3.56413,-3.582615 10.03609,-6.430447 14.9826,-5.308356 4.22158,3.70444 11.81998,8.032924 16.06558,1.928487 1.941,2.768779 9.92426,5.488377 6.9731,-0.316391 -0.89998,-4.572617 9.37441,1.121977 7.52908,5.207387 0.44677,3.286091 3.43814,7.077827 4.12836,1.66199 6.0253,1.093782 7.38216,9.971899 8.5174,15.32459 -0.93118,5.893083 8.81514,13.019876 11.21642,5.628012 -2.84331,-6.144239 14.56356,-5.448119 12.7652,2.342057 -0.87168,6.248333 -10.94228,4.359077 -11.95282,7.851365 5.63158,2.305656 6.97155,7.543789 3.14105,12.363885 -2.75407,5.140013 -5.45433,12.353989 -0.58318,17.164789 3.88783,0.62914 4.06004,5.80316 4.38851,7.23856 7.6051,1.85489 -1.48697,10.49998 -5.7942,11.13325 -5.04581,4.42168 -7.21935,12.46503 -13.10049,15.24256 -1.36397,7.22401 -10.10324,4.08934 -14.94556,2.82472 -4.71137,-2.75554 -7.42539,2.86905 -11.8065,2.4455 z m -31.09466,-5.37731 c 4.34115,-4.6501 -6.36599,0.91672 0,0 z m 41.08572,-3.16392 c -1.61481,-2.59307 -1.54066,2.6537 0,0 z m -9.90021,-0.4952 c -1.04976,-2.54525 -1.10741,2.39116 0,0 z m -15.63321,-0.30051 c 3.82425,-2.2987 -2.82815,-1.85958 0,0 z m -5.95022,-1.45737 c 3.35193,-6.47101 -12.91519,-4.81653 -4.46007,-1.29332 1.17595,0.8803 2.97995,2.80537 4.46007,1.29332 z m 45.83886,-0.30695 c -0.077,-2.27841 0.7628,-8.26324 -1.78384,-3.4125 -0.82516,1.54745 -1.17184,5.25081 1.78384,3.4125 z m 7.42512,-11.30045 c -1.16894,-2.52051 -1.67162,1.91435 0,0 z m 6.43507,-0.702 c 0.23734,-4.81576 -3.90735,2.4512 0,0 z m -75.68984,-0.80781 c 0.41075,-4.28463 -2.9416,2.44092 0,0 z m 73.70978,-2.97444 c -2.33035,-2.69979 -0.901,3.18318 0,0 z m -2.76296,0.22393 c 3.94526,-2.63048 -3.51748,-1.03283 0,0 z m 13.15814,-1.18457 c -1.77118,-3.0738 -0.59179,3.12189 0,0 z M 239.44234,74.486054 c 3.04144,-8.250956 -8.08182,0.921633 0,0 z m 8.50024,-5.438757 c 0.32707,-7.975972 -8.0544,4.08671 -1.09499,1.588008 0.91791,-0.01682 1.13673,-0.872186 1.09499,-1.588008 z m -12.4255,-0.625113 c -0.79616,-1.387975 -0.33061,1.577013 0,0 z M 167.20594,55.056962 c -2.06006,-3.776694 -1.80053,3.075694 0,0 z m 2.63557,-3.664445 c 1.67083,-4.420479 -3.8814,-0.0201 0,0 z m 11.61377,-3.750681 c 9.32237,0.427352 2.54187,-13.298617 -3.00358,-6.023072 -4.76374,3.287218 -2.70115,9.279715 2.8531,6.083089 z m 17.92618,-1.972569 c -0.74259,-4.293617 -3.58929,2.108001 0,0 z m 14.35528,-0.759935 c -0.92099,-4.359355 -0.51784,2.808652 0,0 z m -14.27881,97.985898 c -0.25285,-3.97535 2.69512,0.44401 0,0 z m 33.70164,-2.28226 c -3.44459,-2.65644 2.72232,-1.63783 0,0 z m 6.31761,-3.09586 c 0.88719,-3.12845 1.93347,2.14994 0,0 z m 7.42507,-8.70389 c 1.04979,-2.54526 1.10738,2.39116 0,0 z m 1.48508,0 c 1.7428,-3.0746 2.40955,2.55838 0,0 z m -95.5366,-17.97318 c 1.53716,-5.30305 5.48807,1.44298 0,0 z m 99.74407,-2.81716 c 1.26283,-2.11033 0.42637,1.8578 0,0 z m -4.47542,-3.49799 c 0.33389,-2.69874 1.31877,1.93937 0,0 z m -92.11175,-3.16404 c -2.08985,-6.34898 5.16169,0.85721 0,0 z m -12.56208,-8.624837 c 1.29889,-4.34436 5.70703,2.720328 0.40726,0.08686 l -0.33684,-0.07184 z m 105.54661,-2.615515 c 2.01835,-3.74893 2.6543,2.501955 0,0 z m 4.34516,-0.165457 c 2.01926,-4.131977 3.10362,2.845785 0,0 z M 143.71356,86.275629 c -1.31427,-5.202445 5.07879,-1.148885 0,0 z m 106.27158,-1.150543 c -0.71583,-7.860818 10.73806,2.827191 0.5171,0.559642 z m 0.9617,-7.123324 c 1.13793,-4.475613 2.90627,2.073053 0,0 z m -103.2937,-4.861 c 7.29368,-3.439633 -2.03139,5.426056 0,0 z m 5.19759,-2.738526 c 1.04976,-2.54527 1.1074,2.391141 0,0 z m 81.80006,-9.041111 c -3.91019,-1.954904 0.90123,-2.808939 1.12598,-0.320904 z m 0.86629,-3.829083 c 1.0514,-2.430747 0.57025,2.063421 0,0 z m 4.60983,-1.873938 c -3.77274,-3.848485 6.7427,-3.338827 0.77839,0.100983 l -0.40417,0.0711 z m -5.10486,-4.066161 c 1.0518,-2.431383 0.56983,2.065391 0,0 z m 14.05816,-0.0801 c 1.3011,-5.433322 4.68918,3.211583 0,0 z m -0.69288,-5.11743 c 0.92073,-4.363399 0.51799,2.809655 0,0 z m -26.7305,-7.672666 c 1.58545,-6.875636 1.43183,5.491054 0,0 z m -26.22787,-3.093762 c 2.15657,-6.279642 4.20449,4.1872 0,0 z m 4.6376,-2.569911 c 0.0277,-8.186778 4.69814,4.36624 0,0 z"
       style="fill:#8f8f8f;fill-opacity:0.49803922;stroke-width:0.49500823" />
    <path
       id="path1131"
       d="m 197.35405,145.83395 c 1.46008,-2.22959 0.36907,2.65823 0,0 z m 7.0002,-3.11803 c 1.50963,-4.87906 -6.58223,-5.44583 -8.6487,-7.54829 -4.25741,2.96693 -9.42013,5.45353 -13.16926,0.80365 -5.78866,-0.4887 -3.52615,8.8119 -9.43981,4.61166 -2.78715,-0.80851 -6.03404,-5.11531 -1.39704,-2.30239 6.17079,-1.6015 -3.84292,-7.42476 3.30583,-7.64159 2.61338,1.15758 10.02671,3.83877 7.00308,-1.84779 -3.82318,-4.9436 -9.78093,-0.23943 -13.1347,1.07267 -5.18878,-4.40608 -7.79988,-12.02627 -9.71582,-18.27252 1.36736,-6.62218 3.73252,-14.757424 -4.02324,-18.110023 -5.67542,-6.354415 2.74689,-12.727649 1.88233,-19.710314 0.87844,-4.923215 -3.47528,-8.292063 -6.56756,-3.687524 -4.68345,3.627091 -8.63749,-1.943541 -2.05437,-3.637967 4.99249,-2.731221 11.44065,-4.250428 14.14097,-9.773862 3.39941,-0.987806 4.22727,-2.667366 1.11381,-4.977023 -1.43997,-6.626024 9.17211,-6.343712 10.82273,-12.136309 7.38211,-2.133723 -4.45565,10.695623 4.45387,9.458082 6.98638,0.796608 11.23164,-8.240786 3.5063,-10.798922 -2.84108,-6.195398 7.93438,-2.486781 9.81112,0.569286 5.10121,5.157492 11.08103,-3.09226 16.2375,2.434753 4.07154,3.486239 3.11582,-6.925795 7.85162,-1.880419 1.64203,2.614919 0.65847,10.59287 5.95581,6.866929 1.66541,-6.023193 6.17637,4.087423 5.60021,7.38062 1.82797,5.429055 3.32812,11.716216 8.61861,15.012401 1.41673,2.059063 -0.19344,9.278532 5.87533,7.785893 9.05599,0.548104 2.80303,11.266486 0.15662,15.625804 -3.23626,6.010483 1.83898,11.283555 3.41854,16.687945 0.48374,4.72023 9.20557,2.01987 4.16187,5.17077 -2.05489,6.44832 -9.25973,8.55584 -12.66886,14.60542 -3.10401,2.71645 -2.01973,8.39782 -7.85969,7.88474 1.16419,8.58115 -9.93109,4.32748 -14.50253,3.07871 -3.85788,-0.65194 -7.80294,0.77811 -10.73457,3.27561 z m 9.36448,-7.69336 c 0.0852,-4.69094 -3.35222,2.79438 0,0 z m -9.13968,-1.26602 c -1.74841,-4.54667 -3.03472,3.63486 0,0 z m -16.05523,-0.0117 c 4.42596,-6.07958 -5.815,0.31028 0,0 z m 40.06316,-2.04735 c 0.69031,-2.88552 0.37874,-9.4829 -3.03254,-4.36159 -0.64701,1.82299 0.12228,6.97561 3.03254,4.36159 z m -2.97005,-8.08286 c -1.04402,-3.07436 -1.71452,2.27519 0,0 z m -58.05797,-3.39433 c 1.91073,-5.07379 -8.04117,0.13008 -0.962,0.10694 0.32038,0.04 0.64194,-0.0868 0.962,-0.10694 z m 68.45315,0.16137 c -2.66937,-4.32035 -5.43406,1.32094 0,0 z m 6.4298,-0.72071 c 1.55049,-4.80406 -10.34256,-7.06552 -3.81403,-1.66633 0.72538,1.26041 2.31443,3.34887 3.81403,1.66633 z m 3.3775,-7.15297 c -1.71816,-1.13093 0.0506,1.99733 0,0 z M 239.47718,78.3215 c -1.04976,-2.54527 -1.1074,2.391141 0,0 z M 170.17599,51.311016 c 1.95937,-6.975584 -4.78094,1.156224 0,0 z m 29.57836,-5.660048 c -0.36404,-5.285394 -3.76923,2.278489 0,0 z m 14.47736,-0.465971 c -1.48422,-4.331191 -1.85097,3.579824 0,0 z m -23.88388,-2.87551 c -2.33082,-3.194379 -1.90937,3.667734 0,0 z m 52.09934,81.552583 c 1.04977,-2.54525 1.1074,2.39114 0,0 z m 4.56523,-14.63082 c -2.34829,-5.32668 4.62051,0.83454 0.90351,0.43117 z m -91.02541,-8.42033 c -0.47145,-4.848013 3.13003,2.38127 0,0 z m -11.53373,-8.823734 c 2.59493,-4.334922 3.52531,3.354411 0,0 z m 105.17149,-1.785655 c 0.72593,-1.990965 0.26462,1.653831 0,0 z m 4.45508,-0.495203 c 0.44928,-1.805204 1.15664,0.929812 0,0 z M 143.94058,85.621283 c -0.58155,-3.714006 3.48891,-0.112586 0,0 z m 105.972,-1.188254 c 0.0382,-5.750056 8.49638,2.780764 1.47957,0.514981 -0.52317,-0.08358 -0.99546,-0.312903 -1.47957,-0.514981 z m 1.44474,-6.605611 c 1.04977,-2.545278 1.10741,2.391148 0,0 z M 147.4056,73.653504 c 3.05602,-4.181273 5.23088,2.22606 0,0 z m 96.27911,-1.880017 c -4.79685,2.007695 -1.04245,-7.769063 0.44698,-1.885775 1.24338,0.707744 1.77315,3.637508 -0.44698,1.885775 z m 3.96005,-0.381196 c 6.35608,-5.042541 -12.88483,-8.770732 -2.23945,-10.34339 4.65463,-1.118584 12.48346,4.409187 5.43749,6.884556 -0.50994,1.93075 -0.0162,6.153512 -3.19804,3.458834 z M 234.03205,60.254606 c 1.73084,-3.629743 1.64715,3.349266 0,0 z m 6.03908,-5.296568 c -3.26805,-3.379185 3.77185,-0.06208 0,0 z m 9.53445,-3.397257 c 0.45891,-5.700453 5.33881,2.273845 0,0 z M 172.15605,39.24601 c -0.10255,-1.945081 1.31555,0.769347 0,0 z m 49.70336,-0.215154 c -1.04068,-3.636515 2.60073,1.328627 0,0 z m -25.61299,-3.113932 c -0.89842,-4.319333 3.71295,1.557891 0,0 z m 11.84377,-0.471233 c -0.34694,-4.659407 3.18387,2.696022 0,0 z m -7.86747,-2.832713 c -0.84266,-4.713567 3.09876,2.642417 0,0 z"
       style="fill:#6f6f6f;fill-opacity:0.49803922;stroke-width:0.49500823" />
    <path
       id="path1129"
       d="m 204.6568,142.30426 c -1.32844,-3.01608 3.37096,-0.76674 0,0 z m -28.78819,-0.67551 c -2.30127,-4.13653 -4.1082,-12.39051 3.25898,-9.24039 3.49287,0.8303 6.98293,0.92671 9.67982,0.58388 -0.50115,-5.47428 -8.9184,-4.7322 -13.10451,-7.15187 -4.51561,-1.89255 -6.17588,8.6511 -8.38084,1.12515 -0.94862,-2.73969 -6.07257,-5.74983 -0.15772,-6.53591 6.17712,-3.80838 -6.29718,-3.48955 -7.36061,-7.26751 -0.96775,-6.38695 5.99476,-15.834835 -2.35543,-20.117692 -9.26915,-2.215656 1.53201,-11.646469 -0.3984,-17.349655 1.79822,-5.473809 -3.65856,-12.821052 -7.59972,-5.515192 -3.61722,2.67731 -6.43725,-1.436898 -1.55628,-2.91867 6.15663,-4.128877 15.05227,-6.147122 19.04539,-12.358961 -3.47924,-3.982634 -3.75782,-9.05434 2.46467,-9.909286 5.31616,-2.504242 5.84726,6.882963 12.03481,3.884698 6.46089,0.03304 10.65696,-8.950711 2.61898,-10.062577 -4.29787,-2.708854 0.45776,-4.899895 3.02167,-1.979533 5.00702,1.179134 8.97376,4.783285 11.55476,8.599768 0.57855,-4.503406 5.61806,-9.285686 7.78558,-2.513222 2.82874,-1.683231 8.78106,6.120708 6.53656,-1.08587 0.19108,-5.202069 4.89643,0.845952 3.51277,3.406663 1.2613,4.107761 8.61674,1.860311 5.89446,-2.2441 5.76634,4.264001 4.76394,12.660918 7.34257,18.6809 0.0913,6.299084 9.61549,6.194546 6.60932,12.144287 -0.77701,4.770197 3.13376,5.341857 6.07052,2.812318 8.21215,0.86769 2.00426,9.391486 0.58009,13.946464 -5.1603,6.315724 -0.29153,11.90522 3.29722,17.23192 3.26235,3.93204 3.49018,16.24422 -3.76158,10.04116 -1.24989,-2.3698 -7.99124,-7.59346 -5.6688,-1.41725 2.98735,2.88112 7.41323,11.2409 -0.0234,10.92071 -3.46919,-0.11466 -1.37953,9.77771 -6.95818,7.30973 0.4107,9.85254 -10.03744,5.60337 -15.68931,3.8751 -5.5395,0.014 -11.27454,2.42567 -15.5181,-2.98671 -4.56761,-4.39936 -5.10338,3.86145 -9.61463,1.82601 0.49488,3.66597 -5.46103,-3.5126 -8.81077,-1.21711 -4.35709,-0.36017 -1.85095,6.93437 -4.34985,5.48275 z m 38.23301,-6.35602 c -0.4469,-8.94593 -6.00323,4.76499 0,0 z m -8.55058,-1.39341 c -2.59091,-4.95896 -2.74133,4.29315 0,0 z m 23.1931,-1.79167 c 1.53086,-2.92251 0.75661,-10.68967 -3.74775,-8.03748 -0.37147,2.17027 -0.26341,11.06522 3.74775,8.03748 z m -13.63586,-2.37715 c -1.04021,-3.11872 -1.86823,2.39237 0,0 z m 14.71618,-8.32234 c -0.70995,-4.03244 -2.52917,2.83007 0,0 z m 6.09831,-1.05174 c -0.3367,-4.54687 -8.49907,-2.36568 -2.8565,0.23113 0.86575,0.4649 2.16804,0.66776 2.8565,-0.23113 z m 9.20645,-6.67384 c 3.82424,-2.29848 -2.82801,-1.85987 0,0 z m -7.3846,-13.55979 c -2.57812,-0.672147 1.0081,2.20695 0,0 z M 167.70097,64.214711 c -2.05162,-4.173429 -2.65976,3.513826 0,0 z m 2.73023,-12.646972 c 0.95416,-9.979658 -6.73931,3.99407 0,0 z m -1.1471,86.420831 c -0.88551,-3.21389 1.8822,2.67657 0,0 z m 81.57819,-25.44999 c 0.23862,-3.87215 3.61826,1.05789 0,0 z m -3.86106,-3.62463 c -1.08542,-5.06473 3.74924,2.60273 0,0 z m -90.68549,-8.56368 c 1.02202,-2.490198 0.6847,2.21777 0,0 z m 1.73257,-5.197585 c 0.72593,-1.990966 0.26462,1.653834 0,0 z m -13.0329,-3.319731 c 2.82081,-4.014156 3.53551,3.293434 0,0 z m 105.35186,-7.633962 c 1.81701,-4.155443 4.73944,3.001606 0,0 z M 149.88068,72.877316 c 1.53695,-2.028134 1.24009,2.302948 0,0 z m 98.01156,-1.919424 c 2.6002,-5.131749 3.81057,4.0642 0,0 z M 241.82837,70.5042 c -5.19367,-3.341092 3.91194,-2.257737 0.94346,-0.15111 z m 10.66201,-3.503664 c -6.13552,2.325367 -6.0381,-10.02704 -0.0257,-4.83882 1.05025,0.982146 3.73218,6.232022 0.0257,4.83882 z m -9.30069,-2.043137 c 1.26264,-2.110196 0.42636,1.857372 0,0 z m -1.08764,-2.866975 c -0.20788,-3.931749 2.4216,2.188997 0,0 z m 7.88221,-11.081674 c 1.15222,-4.721528 3.87338,2.794149 0,0 z m -75.02321,-9.646756 c -2.87394,-4.791246 5.67804,-1.986205 0,0 z m 21.45036,-6.393849 c 1.67037,-2.034724 0.45959,2.352647 0,0 z m 11.8802,0.04093 c 1.73073,-3.629691 1.64714,3.348417 0,0 z m -7.6515,-2.688304 c -0.68651,-4.138224 1.92651,1.442689 0,0 z"
       style="fill:#4e4e4e;fill-opacity:0.49803922;stroke-width:0.49500823" />
    <path
       id="path1127"
       d="m 175.74484,141.35566 c -3.18771,-5.26312 4.36724,1.88599 0,0 z m 31.63096,-2.1472 c -7.71482,-3.20704 -15.5803,-6.5978 -21.85978,-12.25456 -5.36262,-2.06837 -13.50481,-0.26344 -16.19803,-6.62822 1.25146,-7.23849 -11.51572,-2.8477 -8.89224,-10.74796 0.47631,-5.50288 5.12806,-14.005638 -2.08379,-16.88305 -9.37084,-2.182168 2.35488,-10.901085 -1.4711,-16.342552 -1.64951,-5.308613 10.01352,-7.161523 2.0852,-10.120623 -3.39203,-1.968182 -12.81134,5.162121 -7.29394,-1.446914 3.71941,-3.925149 12.2793,-1.117591 14.58346,-1.235006 -1.65493,-5.600939 4.95761,-8.656035 5.22886,-12.656376 -1.36417,-6.262547 7.63425,1.771265 10.64908,-1.672579 5.27015,-1.637163 11.70237,-13.685173 15.42798,-3.620303 3.0868,2.072518 4.21413,-4.658832 8.12462,-1.698217 3.40045,1.777384 10.88512,3.324957 8.44415,-3.122499 0.12948,5.971687 8.40233,10.649732 9.24627,3.568656 4.67986,5.780585 2.72257,14.573782 6.9765,20.811482 3.92735,3.611666 6.09583,8.148143 6.88717,12.999035 3.86632,-0.691813 10.39632,1.045238 7.19306,6.157237 -3.80222,2.231476 -0.23952,7.195232 -3.45149,10.735207 -2.84556,4.33492 0.30271,8.398302 3.45252,10.517852 -0.24101,4.39321 1.94339,10.68542 2.59688,13.15686 -6.56959,1.80449 -7.24177,-11.97046 -14.06129,-4.33968 -4.51681,3.1284 -9.83222,8.6041 -8.13749,14.44104 3.72411,4.49655 5.59509,13.90164 -3.28294,11.40403 -4.44907,0.10023 -9.11924,-10.30119 -11.95482,-5.62258 -0.37368,1.30426 0.557,7.38963 -2.20884,4.59972 z m -1.37891,-5.32136 c -3.08156,-5.88921 -3.43337,6.90344 0,0 z m 9.48574,-3.61048 c 0.3344,-5.03267 -3.78345,1.7992 0,0 z m 7.41174,-0.96837 c -0.72596,-1.9909 -0.26461,1.65382 0,0 z m -17.84497,-0.95006 c 0.52817,-4.91134 -5.0379,1.20931 0,0 z m -3.19286,-5.48501 c -0.79618,-1.38795 -0.33059,1.57702 0,0 z m -27.22547,-0.96082 c 0.2367,-4.90708 -2.78045,2.40108 0,0 z m 58.90596,-9.22808 c -1.68927,-1.9831 -0.43456,2.34017 0,0 z m -67.81611,-1.44381 c -0.92071,-4.36329 -0.51799,2.80962 0,0 z m 0.38821,-9.09987 c -4.93608,-3.573124 -0.24613,5.42135 0,0 z m 71.79381,-1.62779 c -1.37963,-4.312942 -1.59022,3.40029 0,0 z m -1.9835,-3.349144 c -2.05117,-1.348366 -0.0231,2.40696 0,0 z m -78.6137,-7.988497 c -2.20032,-1.410586 -0.54981,2.767842 0,0 z m 9.90015,-16.545338 c -0.92113,-4.359066 -0.51769,2.808686 0,0 z M 183.04619,57.5321 c -1.05137,-2.430721 -0.57028,2.06343 0,0 z m 3.46502,-2.807339 c -1.8432,-5.830137 -4.54698,3.75665 0,0 z m -1.75245,-3.165032 c 4.55385,-0.966782 -6.25637,-0.53301 -1.10967,0.14226 l 0.53311,-0.240614 z m 41.23253,-1.329039 c -3.86419,-3.315322 -2.8177,4.046039 0,0 z m -31.15237,-6.394083 c -1.18943,-3.965834 -1.72904,2.943359 0,0 z m -5.85263,95.318173 c -4.39727,-0.57654 2.61114,-1.87795 0,0 z m -15.09779,-0.44141 c 0.8504,-1.5362 0.71417,1.53014 0,0 z m 38.85818,-0.74251 c -0.56563,-3.01553 1.37836,2.23025 0,0 z m -21.21679,-0.90739 c -7.08046,-1.16617 4.64936,-4.03336 1.18415,-0.63904 z m -14.68064,-2.26764 c -5.19342,-0.7933 0.17819,-4.68679 1.89072,-0.81176 2.28929,1.02838 10.16908,-2.91534 5.24047,1.63695 -2.19844,0.86568 -5.66048,1.68571 -7.13119,-0.82519 z m 55.20275,0.49286 c -1.31441,-3.89058 3.44523,0.58536 0,0 z m -2.6662,-1.56647 c 0.41361,-4.15161 0.12391,-9.21216 -0.32505,-12.2213 4.38552,-5.37953 15.93356,3.91351 6.39182,5.47791 -2.43318,1.88178 -2.99338,5.58709 -6.06677,6.74339 z m -60.53516,-6.24376 c -4.72779,-2.52206 4.04538,-1.44223 0.94548,-0.106 z m -4.5616,-4.01103 c -2.0424,-3.83063 3.62668,0.81024 0.52777,0.22455 l -0.31692,-0.13484 z m 70.60924,-4.6963 c -1.9565,-3.77749 5.98886,2.25189 0,0 z m 11.75637,-6.29329 c 0.85039,-1.53621 0.71417,1.53014 0,0 z m 0.79571,-3.78056 c -2.24433,-3.16893 3.74045,0.80825 0,0 z m -91.13462,-8.59467 c 1.04977,-2.545259 1.10741,2.39114 0,0 z m 95.53655,-16.335269 c 1.61448,-2.59309 1.54073,2.653097 0,0 z m -5.81633,-4.782891 c -2.10617,-3.445442 3.40008,1.094941 0,0 z M 144.2705,71.557164 c -2.38013,-6.095357 5.86473,0.630154 0,0 z m 104.51276,-1.253852 c 1.33042,-1.938764 1.00044,1.443236 0,0 z m -7.98259,-1.093013 c -1.28653,-4.542468 3.02763,0.755725 0,0 z m 12.04173,-2.768051 c -4.31491,1.258007 -6.59323,-5.786175 -1.06208,-3.928015 0.92925,0.366427 4.02046,5.065812 1.06208,3.928015 z m -10.64277,-4.950102 c 1.03077,-1.583596 0.33961,1.78374 0,0 z m 8.16769,-10.589687 c 1.25378,-4.507884 2.93241,2.549012 0,0 z m -48.01581,-9.70563 c 0.93481,-5.218985 1.88155,3.774876 0.0646,0.167131 z m -15.80365,-0.698488 c 2.79428,-4.782348 4.27826,3.967838 0,0 z"
       style="fill:#2f2f2f;fill-opacity:0.49803922;stroke-width:0.49500823" />
    <path
       id="path1125"
       d="m 176.11609,140.66425 c 1.07124,-0.89913 0.0347,1.3691 0,0 z m 41.13133,-1.92258 c -2.92513,-2.6923 -1.69818,-12.22498 -6.92354,-6.71156 -3.42947,-1.39013 -9.2459,-2.32193 -9.60476,2.91729 -6.32732,-1.67979 -10.75876,-6.80941 -16.38835,-9.58757 -6.17899,-0.64987 -10.67704,-4.4038 -13.77082,-9.32745 -3.99086,-0.61078 -13.94712,-2.23957 -7.96795,-7.78154 5.5176,-6.16811 -0.90598,-12.913371 -2.43198,-19.098232 -1.85725,-2.718753 1.59183,-10.486063 0.5784,-9.336502 -5.03739,2.397412 -4.08825,-9.734645 0.79837,-5.320819 5.32716,0.220422 10.95054,-3.120412 4.71508,-7.420846 1.13051,-5.645172 4.00112,-12.175379 8.92212,-15.534732 5.29214,-3.522515 6.30054,2.884814 8.33487,5.603904 6.05758,0.801312 4.41951,-8.912877 4.88565,-9.730909 8.14786,-0.81131 17.2719,-2.285539 24.77484,1.063192 7.20267,1.61526 13.53938,6.249421 14.44672,13.846994 2.78839,5.416476 8.46231,9.747615 8.53942,16.238054 2.32925,2.718991 11.75723,-0.296239 6.50922,5.538792 -0.82659,5.095457 -0.97809,12.611907 -7.83961,10.511546 -3.49192,6.059318 5.70613,8.441228 9.03661,10.536158 3.07715,4.42407 -4.41308,10.03555 -6.77086,4.25536 -7.90566,-0.18781 -9.886,10.5138 -13.80122,15.65622 -1.45832,5.05787 5.26729,16.1349 -4.2743,13.66122 l -0.88627,-0.015 -0.88162,0.0364 z M 192.45136,130.08 c -0.26689,-2.43366 -1.55935,1.38424 0,0 z m 13.21807,-1.59722 c 0.38392,-5.46482 -8.18043,0.79783 -1.28678,0.76541 0.5194,0.065 1.18731,-0.17219 1.28678,-0.76541 z m -11.57261,-0.85863 c -1.6744,-4.04101 -2.47207,3.30664 0,0 z m 8.47399,-4.22478 c 0.64054,-4.31715 -2.99951,2.61284 -0.18707,0.16837 z m 20.06368,-5.19162 c -2.71244,0.12297 1.72523,1.80164 0,0 z m 4.96244,-0.77969 c -2.07871,-4.53141 -2.02837,4.06723 0,0 z m -7.42513,-1.48503 c -1.8393,-4.32549 -1.60546,3.64696 0,0 z m 4.45508,0.52444 c -0.43862,-3.6484 -2.72135,1.59122 0,0 z m -58.14363,-4.02144 c 2.24846,-5.48853 -8.1365,0.72798 -1.17136,0.47484 l 0.61909,-0.155 z m 3.19772,-0.46305 c -1.01962,-2.45978 -0.94589,2.2934 0,0 z m 53.48702,-56.183447 c -1.88702,-2.015428 -0.67354,2.645522 0,0 z m -4.7287,-2.227537 c -0.79894,-1.478043 -0.61104,1.461827 0,0 z m -26.16455,-5.203842 c 1.07849,-4.436684 -3.32788,1.969959 0,0 z m -5.02096,89.355276 c 1.17941,-2.54002 0.43558,2.01417 0,0 z m 17.07866,-1.37072 c 4.27453,-3.86891 4.76052,3.82467 0,0 z m -14.29974,-0.68557 c 0.38015,-2.99266 3.37311,2.45628 0,0 z m 34.59418,0.15318 c 1.16596,-5.11059 4.70608,1.40356 0,0 z m -40.27469,-2.79927 c 0.0472,-3.16311 0.66061,2.05097 0,0 z m 45.22479,-0.69831 c 3.18706,-3.86627 -2.94709,-13.35759 4.89136,-10.7858 5.75895,5.62833 -1.4149,7.59797 -4.89136,10.7858 z m -61.87601,-6.47951 c 1.01962,-2.45978 0.94589,2.2934 0,0 z m 2.74163,-2.94894 c -2.30851,-5.12257 4.18804,1.98624 0,0 z m 65.81699,-4.47618 c 0.5836,-1.51016 0.51655,1.29156 0,0 z m 7.17121,-1.10453 c 0.31645,-5.64064 3.78881,4.20661 0,0 z m 5.20396,0.6095 c 1.17944,-2.54025 0.43555,2.01438 0,0 z m -0.96884,-9.37097 c 0.29725,-2.81828 1.54838,1.83935 0,0 z M 153.11049,91.212576 c -2.4823,-4.369715 4.58407,0.0039 0,0 z m 4.69028,-0.515081 c 1.01959,-2.45978 0.9459,2.293383 0,0 z m -1.16902,-3.712562 c -2.32598,-3.707454 3.04604,-0.631647 0,0 z m -12.1962,-16.582756 c 1.56492,-4.44434 2.17444,3.444314 0,0 z m 4.9501,-1.613824 c 0.55716,-5.48362 5.53045,-0.663552 0,0 z m 3.96034,-4.167189 c 3.05513,-4.272728 4.75511,2.696227 0,0 z m 93.92751,-0.307529 c -1.18745,-3.814223 3.76201,2.507236 0,0 z m -78.58253,-9.999478 c 0.55288,-4.140451 0.77811,2.347511 0,0 z m 54.94591,-6.495696 c 2.55877,-1.673544 0.27473,2.90171 0,0 z M 188.7388,45.156525 c 0.90204,-2.262559 0.18274,1.845991 0,0 z m 33.77402,-0.794079 c -2.54253,-1.400813 1.88434,-1.843164 0,0 z"
       style="fill:#030303;stroke-width:0.49500823" />
    <g
       id="g5005">
      <g
         transform="rotate(-180,203.17136,84.278882)"
         id="g5009">
        <path
           id="path1158"
           d="m 177.36941,82.655972 23.59933,5.113263 c 0,0 -4.71992,9.833013 -9.8331,8.653055 -5.11318,-1.179958 -13.76623,-13.766318 -13.76623,-13.766318 z"
           style="fill:#ffffff;stroke:#000000;stroke-width:2.20260525px;stroke-linecap:butt;stroke-linejoin:miter;stroke-opacity:1" />
        <path
           id="path1158-3"
           d="m 228.97331,82.655972 -23.59933,5.113263 c 0,0 4.71991,9.833013 9.83309,8.653055 5.11318,-1.179958 13.76624,-13.766318 13.76624,-13.766318 z"
           style="fill:#ffffff;stroke:#000000;stroke-width:2.20260525px;stroke-linecap:butt;stroke-linejoin:miter;stroke-opacity:1" />
      </g>
    </g>
  </g>
</svg>
